<svg width="53" height="54" viewBox="0 0 53 54" fill="none" xmlns="http://www.w3.org/2000/svg">
<g filter="url(#filter0_d)">
<path d="M26.4728 10C17.7888 10 10.6778 16.6942 10 25.2043L18.858 28.8685C19.6082 28.3539 20.5143 28.0567 21.4929 28.0567C21.5799 28.0567 21.6669 28.0603 21.7539 28.0639L25.6936 22.3483C25.6936 22.3229 25.6936 22.2939 25.6936 22.2685C25.6936 18.8326 28.4916 16.0346 31.9275 16.0346C35.3634 16.0346 38.1614 18.8326 38.1614 22.2685C38.1614 25.7044 35.3634 28.5025 31.9275 28.5025C31.8804 28.5025 31.8333 28.5025 31.7862 28.4988L26.1647 32.511C26.1684 32.5835 26.1684 32.6596 26.1684 32.7321C26.1684 35.3127 24.0699 37.4112 21.4893 37.4112C19.2241 37.4112 17.3321 35.7947 16.9008 33.6527L10.569 31.0323C12.5298 37.9694 18.9051 43.058 26.4728 43.058C35.6026 43.058 43 35.657 43 26.5308C43 17.401 35.599 10 26.4728 10Z" fill="white"/>
<path d="M20.358 35.0806L18.3284 34.2434C18.6872 34.9936 19.3106 35.6206 20.1369 35.965C21.9238 36.708 23.9824 35.8599 24.729 34.073C25.0878 33.2068 25.0915 32.2536 24.7327 31.3874C24.3775 30.5211 23.7033 29.8434 22.8371 29.4846C21.9781 29.1258 21.0575 29.1403 20.2493 29.4447L22.3478 30.3109C23.6671 30.8618 24.2905 32.3732 23.7396 33.6925C23.1887 35.0045 21.6773 35.6279 20.358 35.0806Z" fill="white"/>
<path d="M36.0813 22.2684C36.0813 19.9778 34.2183 18.1149 31.9277 18.1149C29.6371 18.1149 27.7742 19.9778 27.7742 22.2684C27.7742 24.559 29.6371 26.422 31.9277 26.422C34.2183 26.422 36.0813 24.559 36.0813 22.2684ZM28.8144 22.2612C28.8144 20.5396 30.2134 19.1406 31.935 19.1406C33.6565 19.1406 35.0556 20.536 35.0556 22.2612C35.0556 23.9827 33.6602 25.3818 31.935 25.3818C30.2098 25.3818 28.8144 23.9864 28.8144 22.2612Z" fill="white"/>
</g>
<defs>
<filter id="filter0_d" x="0" y="0" width="53" height="53.058" filterUnits="userSpaceOnUse" color-interpolation-filters="sRGB">
<feFlood flood-opacity="0" result="BackgroundImageFix"/>
<feColorMatrix in="SourceAlpha" type="matrix" values="0 0 0 0 0 0 0 0 0 0 0 0 0 0 0 0 0 0 127 0"/>
<feOffset/>
<feGaussianBlur stdDeviation="5"/>
<feColorMatrix type="matrix" values="0 0 0 0 0 0 0 0 0 0 0 0 0 0 0 0 0 0 0.95 0"/>
<feBlend mode="normal" in2="BackgroundImageFix" result="effect1_dropShadow"/>
<feBlend mode="normal" in="SourceGraphic" in2="effect1_dropShadow" result="shape"/>
</filter>
</defs>
</svg>
